<?xml version="1.0"?><svg version="1.2" baseProfile="tiny-ps" viewBox="0 0 300 300" xmlns="http://www.w3.org/2000/svg" xmlns:xlink="http://www.w3.org/1999/xlink"><title>Zink Hosting</title><g><g fill="#c40090" transform="matrix(.1 0 0 -.1 0 300)"><path d="M0 1500V0h3000v3000H0V1500z"/></g><g fill="#920096" transform="matrix(.1 0 0 -.1 0 300)"><path d="M0 1500V0h3000v3000H0V1500zm1790 777c0-1-54-56-120-122l-120-120v245h120c66 0 120-1 120-3zm370-186v-189l-107-103-108-102-3 36-3 37h-12c-7-1-23-7-37-15s-31-14-37-15h-13v375l82 82 83 83h155v-189zm-783-153 46-33-28-3c-15-2-38-1-51 2l-24 6v30c0 17 3 30 6 30s26-15 51-32zm780-800-7-53-29-60c-17-34-42-71-56-85l-25-23v96c0 53-2 97-4 97-3 0-16-4-30-10l-26-10v89l83 4c45 1 86 4 91 5l9 2-6-52z"/></g><g fill="#5f00a9" transform="matrix(.1 0 0 -.1 0 300)"><path d="M0 1500V0h3000v3000H0V1500zm2160 597v-193l-242-239-243-240-5 102-5 102-15-9c-8-5-21-10-27-10h-13v282l198 199 197 199h155v-193zm-545-8-190-191-90 5-90 4-27 11-28 12v151l13-7c6-4 31-20 55-36l42-29v271h505l-190-191zm542-954-6-55-24-53-24-52-42-47-41-46-52-26c-29-14-58-26-65-26h-13v200l-70-35c-38-19-72-35-75-35s-5 49-5 109v110l33 4c17 2 113 5 211 5l179 2-6-55z"/></g><g fill="#0b2e7c" transform="matrix(.1 0 0 -.1 0 300)"><path d="M0 1500V0h3000v3000H0V1500zm2160 597v-192l-355-355c-195-195-355-357-355-360s160-4 356-2l357 3-6-56-6-55-24-53-24-52-42-47-42-47-67-33-66-33-88-3-88-4v56c0 31-3 56-6 56s-54-25-113-55l-108-55h-53l-2 180-3 180-36-24-36-25-7 252-6 252 333 333 333 332h154v-193zm-545-8-190-191-96 5-95 4-55 25c-30 14-69 37-86 52l-33 28v177l15-5 15-6v102h715l-190-191z"/></g><g fill="#2b00bf" transform="matrix(.1 0 0 -.1 0 300)"><path d="M0 1500V0h3000v3000H0V1500zm2160 595v-190l-357-357-358-358h718l-6-55-6-55-24-53-24-52-42-47-42-48-77-37-76-38h-460c-254-1-352 1-218 2l242 3v361l-12-7c-7-4-25-16-40-26l-28-19v123c0 68-3 181-7 251l-6 129-197-194c-108-106-46-44 139 139l335 331-190 4-190 3-75 37-74 37-30 32c-16 18-22 27-12 20l17-13v171l15-5 15-6v102H950l-1-27-1-28-5 18c-3 10-3 24 0 30l5 12h1212v-190zM1598 869c-54-27-98-51-98-54s47-5 105-5h105v110l-7-1c-5 0-52-22-105-50z"/></g><g fill="#0d0b18" transform="matrix(.1 0 0 -.1 0 300)"><path d="M0 1500V0h3000v3000H0V1500zm2160 595v-190l-357-357-358-358h718l-6-55-6-55-24-53-24-52-42-47-42-48-77-37-76-38-463-3-463-3v439l335 329 336 328-189 5-188 5-77 38-76 38-36 42c-20 23-48 63-61 89-26 51-49 141-41 161l5 12h1212v-190z"/></g></g></svg>